<?xml version="1.0" standalone="no"?>
<!DOCTYPE svg PUBLIC "-//W3C//DTD SVG 20010904//EN"
 "http://www.w3.org/TR/2001/REC-SVG-20010904/DTD/svg10.dtd">
<svg version="1.0" xmlns="http://www.w3.org/2000/svg"
 width="512.000000pt" height="512.000000pt" viewBox="0 0 512.000000 512.000000"
 preserveAspectRatio="xMidYMid meet">
<metadata>
Created by potrace 1.14, written by Peter Selinger 2001-2017
</metadata>
<g transform="translate(0.000000,512.000000) scale(0.100000,-0.100000)"
fill="#000000" stroke="none">
<path d="M2497 4794 c-1 -1 -45 -4 -97 -7 -390 -23 -805 -172 -1140 -411 -85
-60 -109 -80 -204 -166 -213 -194 -403 -450 -521 -706 -78 -169 -165 -450
-180 -584 -3 -26 -8 -57 -10 -71 -22 -109 -22 -480 0 -584 2 -11 7 -37 10 -58
33 -234 135 -525 266 -757 33 -60 138 -216 168 -253 136 -163 181 -210 296
-313 307 -274 735 -475 1122 -529 13 -2 40 -6 60 -9 98 -14 159 -18 298 -18
83 0 175 3 205 7 386 43 715 159 1020 361 459 304 794 772 930 1298 28 108 34
138 46 221 3 22 7 46 9 53 7 19 19 218 19 302 -1 166 -26 370 -66 525 -11 44
-21 87 -23 95 -2 8 -15 47 -28 85 -154 440 -412 796 -772 1066 -301 226 -640
372 -990 424 -16 3 -56 9 -87 13 -32 5 -93 10 -135 12 -145 4 -194 5 -196 4z
m517 -154 c92 -20 268 -73 341 -103 72 -30 250 -120 300 -152 31 -19 59 -35
64 -35 5 0 11 -3 13 -7 2 -5 26 -23 53 -42 276 -191 528 -483 680 -790 60
-122 70 -145 105 -246 52 -148 80 -273 107 -465 10 -71 9 -417 -1 -495 -38
-293 -142 -595 -287 -833 -22 -37 -45 -76 -52 -87 -74 -123 -306 -381 -415
-463 -20 -15 -46 -35 -57 -45 -33 -30 -204 -142 -291 -189 -168 -93 -450 -197
-579 -214 -32 -4 -89 -14 -105 -19 -64 -18 -399 -27 -495 -13 -328 49 -641
279 -789 583 -95 195 -125 379 -102 610 4 38 9 72 11 76 2 3 6 18 9 33 3 16
17 64 31 107 114 341 406 603 755 679 81 18 134 23 337 35 50 3 117 13 150 21
32 9 65 17 74 19 34 7 176 70 232 103 216 126 390 346 471 594 24 72 29 97 43
200 33 250 -46 546 -201 753 -126 167 -274 280 -481 366 -59 25 -144 47 -182
48 -13 1 -23 5 -23 9 0 10 152 -10 284 -38z m-320 -750 c185 -93 217 -351 60
-489 -184 -162 -477 -38 -488 206 -6 116 40 204 138 267 68 43 76 45 166 42
56 -2 88 -9 124 -26z"/>
<path d="M2489 1783 c-216 -54 -297 -318 -149 -487 54 -61 135 -96 226 -96 62
0 105 14 163 53 38 26 109 109 101 119 -2 1 2 14 9 27 7 13 14 51 16 84 10
196 -176 348 -366 300z"/>
</g>
</svg>
